G04 PROTEUS GERBER X2 FILE*
%TF.GenerationSoftware,Labcenter,Proteus,8.12-SP0-Build30713*%
%TF.CreationDate,2025-01-15T12:30:57+00:00*%
%TF.FileFunction,Copper,L1,Top*%
%TF.FilePolarity,Positive*%
%TF.Part,Single*%
%TF.SameCoordinates,{9626ba97-e6ad-4adc-9df8-61d07434fadc}*%
%FSLAX45Y45*%
%MOMM*%
G01*
%TA.AperFunction,Conductor*%
%ADD10C,1.016000*%
%TA.AperFunction,ComponentPad*%
%ADD11R,2.032000X2.032000*%
%TA.AperFunction,ComponentPad*%
%ADD12C,1.778000*%
%TA.AperFunction,ComponentPad*%
%ADD13C,2.032000*%
%TA.AperFunction,Profile*%
%ADD14C,0.203200*%
%TD.AperFunction*%
D10*
X+10128000Y-4540000D02*
X+10128000Y-3619500D01*
X+11502000Y-3619500D01*
X+11502000Y-850000D01*
X+10994000Y-850000D02*
X+10994000Y-635000D01*
X+12192000Y-635000D01*
X+12192000Y-4064000D01*
X+10636000Y-4064000D01*
X+10636000Y-4540000D01*
X+10740000Y-850000D02*
X+10740000Y-508000D01*
X+12319000Y-508000D01*
X+12319000Y-4191000D01*
X+10890000Y-4191000D01*
X+10890000Y-4540000D01*
X+12160000Y-4540000D02*
X+12160000Y-4318000D01*
X+12446000Y-4318000D01*
X+12446000Y-381000D01*
X+10486000Y-381000D01*
X+10486000Y-850000D01*
X+12668000Y-4540000D02*
X+12668000Y-254000D01*
X+10232000Y-254000D01*
X+10232000Y-850000D01*
X+9914000Y-2910000D02*
X+9914000Y-3365500D01*
X+9875900Y-3365500D01*
X+9875900Y-4064000D01*
X+9874000Y-4064000D01*
X+9874000Y-4540000D01*
X+13180000Y-2710000D02*
X+13180000Y-3048000D01*
X+12922000Y-3048000D01*
X+12922000Y-4540000D01*
X+9380000Y-850000D02*
X+9380000Y-254000D01*
X+825500Y-254000D01*
X+825500Y-2994000D01*
X+140000Y-2994000D01*
X+1380000Y-3060000D02*
X+1380000Y-5969000D01*
X+12294000Y-5969000D01*
X+12294000Y-5700000D01*
X+12548000Y-5700000D02*
X+14287500Y-5700000D01*
X+14287500Y+0D01*
X+9715500Y+0D01*
X+9715500Y-1270000D01*
X+2603500Y-1270000D01*
X+2603500Y-590000D01*
X+2140000Y-590000D01*
X+2142000Y-2857500D02*
X+9271000Y-2857500D01*
X+2142000Y-3060000D02*
X+2142000Y-2857500D01*
X+9271000Y-2857500D02*
X+9271000Y-3060700D01*
X+9398000Y-3060700D01*
X+9398000Y-4889500D01*
X+10930000Y-2910000D02*
X+10930000Y-2476500D01*
X+9271000Y-2476500D01*
X+9271000Y-2857500D01*
X+1079500Y-2730500D02*
X+1079500Y-2857500D01*
X+9398000Y-4889500D02*
X+13176000Y-4889500D01*
X+13176000Y-4540000D01*
X+9398000Y-4889500D02*
X+9398000Y-5080000D01*
X+1378000Y-590000D02*
X+1378000Y-1079500D01*
X+1079500Y-1079500D01*
X+1079500Y-2730500D01*
X+1079500Y-2857500D02*
X+1079500Y-3248000D01*
X+140000Y-3248000D01*
X+9398000Y-5080000D02*
X+9398000Y-5461000D01*
X+9448000Y-5461000D01*
X+9448000Y-5700000D01*
X+9620000Y-4540000D02*
X+9620000Y-2730500D01*
X+10485480Y-2730500D01*
X+10485480Y-3111500D01*
X+11112500Y-3111500D01*
X+11112500Y-1714500D01*
X+10033000Y-1714500D01*
X+1888000Y-3060000D02*
X+1888000Y-1714500D01*
X+13434000Y-2476500D02*
X+13434000Y-2710000D01*
X+10033000Y-1587500D02*
X+10033000Y-1714500D01*
X+13434000Y-2476500D02*
X+13434000Y-127000D01*
X+10033000Y-127000D01*
X+10033000Y-1587500D01*
X+1888000Y-1714500D02*
X+2349500Y-1714500D01*
X+9702000Y-5700000D02*
X+9702000Y-5461000D01*
X+13430000Y-5461000D01*
X+13430000Y-4889500D01*
X+13434000Y-2710000D02*
X+13434000Y-3175000D01*
X+14160500Y-3175000D01*
X+14160500Y-4889500D01*
X+13430000Y-4889500D01*
X+13430000Y-4540000D01*
X+1632000Y-590000D02*
X+1632000Y-381000D01*
X+7072671Y-381000D01*
X+7072671Y-1143000D01*
X+9588500Y-1143000D01*
X+9588500Y-127000D01*
X+635000Y-127000D01*
X+635000Y-2286000D01*
X+140000Y-2286000D01*
X+140000Y-2740000D01*
X+1632000Y-590000D02*
X+1632000Y-1714500D01*
X+1888000Y-1714500D01*
X+2349500Y-1714500D02*
X+10033000Y-1714500D01*
X+12414000Y-4540000D02*
X+12414000Y-4762500D01*
X+9620000Y-4762500D01*
X+9620000Y-4540000D01*
D11*
X+9620000Y-4540000D03*
X+9874000Y-4540000D03*
X+10128000Y-4540000D03*
X+10382000Y-4540000D03*
X+10636000Y-4540000D03*
X+10890000Y-4540000D03*
X+11144000Y-4540000D03*
X+11398000Y-4540000D03*
X+11652000Y-4540000D03*
X+11906000Y-4540000D03*
X+12160000Y-4540000D03*
X+12414000Y-4540000D03*
X+12668000Y-4540000D03*
X+12922000Y-4540000D03*
X+13176000Y-4540000D03*
X+13430000Y-4540000D03*
X+13684000Y-4540000D03*
X+13938000Y-4540000D03*
D12*
X+10930000Y-2910000D03*
X+9914000Y-2910000D03*
D13*
X+12926000Y-2710000D03*
X+13434000Y-2710000D03*
X+13180000Y-2710000D03*
D11*
X+10210000Y-5700000D03*
X+9956000Y-5700000D03*
X+9702000Y-5700000D03*
X+9448000Y-5700000D03*
X+9194000Y-5700000D03*
X+8940000Y-5700000D03*
X+8686000Y-5700000D03*
X+8432000Y-5700000D03*
X+10770000Y-5700000D03*
X+11024000Y-5700000D03*
X+11278000Y-5700000D03*
X+11532000Y-5700000D03*
X+11786000Y-5700000D03*
X+12040000Y-5700000D03*
X+12294000Y-5700000D03*
X+12548000Y-5700000D03*
X+12010000Y-850000D03*
X+11756000Y-850000D03*
X+11502000Y-850000D03*
X+11248000Y-850000D03*
X+10994000Y-850000D03*
X+10740000Y-850000D03*
X+10486000Y-850000D03*
X+10232000Y-850000D03*
X+9380000Y-850000D03*
X+9126000Y-850000D03*
X+8872000Y-850000D03*
X+8618000Y-850000D03*
X+8364000Y-850000D03*
X+8110000Y-850000D03*
X+7856000Y-850000D03*
X+7602000Y-850000D03*
X+140000Y-2740000D03*
X+140000Y-2994000D03*
X+140000Y-3248000D03*
X+2140000Y-590000D03*
X+1886000Y-590000D03*
X+1632000Y-590000D03*
X+1378000Y-590000D03*
X+1380000Y-3060000D03*
X+1634000Y-3060000D03*
X+1888000Y-3060000D03*
X+2142000Y-3060000D03*
D14*
X+0Y-6010000D02*
X+15116000Y-6010000D01*
X+15116000Y-10000D01*
X+0Y-10000D01*
X+0Y-6010000D01*
M02*
