G04 PROTEUS GERBER X2 FILE*
%TF.GenerationSoftware,Labcenter,Proteus,8.12-SP0-Build30713*%
%TF.CreationDate,2025-01-15T12:30:57+00:00*%
%TF.FileFunction,Legend,Top*%
%TF.FilePolarity,Positive*%
%TF.Part,Single*%
%TF.SameCoordinates,{9626ba97-e6ad-4adc-9df8-61d07434fadc}*%
%FSLAX45Y45*%
%MOMM*%
G01*
%TA.AperFunction,Material*%
%ADD15C,0.203200*%
%TA.AperFunction,Profile*%
%ADD14C,0.203200*%
%TD.AperFunction*%
D15*
X+9493000Y-4667000D02*
X+14065000Y-4667000D01*
X+14065000Y-4413000D01*
X+9493000Y-4413000D01*
X+9493000Y-4667000D01*
X+9747000Y-4413000D02*
X+9747000Y-4667000D01*
X+11588500Y-4280920D02*
X+11588500Y-4372360D01*
X+11683750Y-4372360D01*
X+11810750Y-4357120D02*
X+11794875Y-4372360D01*
X+11747250Y-4372360D01*
X+11715500Y-4341880D01*
X+11715500Y-4311400D01*
X+11747250Y-4280920D01*
X+11794875Y-4280920D01*
X+11810750Y-4296160D01*
X+11842500Y-4372360D02*
X+11842500Y-4280920D01*
X+11906000Y-4280920D01*
X+11937750Y-4311400D01*
X+11937750Y-4341880D01*
X+11906000Y-4372360D01*
X+11842500Y-4372360D01*
X+10803000Y-2910000D02*
X+10676000Y-2910000D01*
X+10168000Y-2973500D02*
X+10676000Y-2973500D01*
X+10676000Y-2846500D01*
X+10168000Y-2846500D01*
X+10168000Y-2973500D01*
X+10168000Y-2910000D02*
X+10041000Y-2910000D01*
X+10105000Y-3125580D02*
X+10105000Y-3034140D01*
X+10184375Y-3034140D01*
X+10200250Y-3049380D01*
X+10200250Y-3064620D01*
X+10184375Y-3079860D01*
X+10105000Y-3079860D01*
X+10184375Y-3079860D02*
X+10200250Y-3095100D01*
X+10200250Y-3125580D01*
X+10263750Y-3064620D02*
X+10295500Y-3034140D01*
X+10295500Y-3125580D01*
X+12735500Y-2900500D02*
X+13624500Y-2900500D01*
X+13624500Y-2519500D01*
X+12735500Y-2519500D01*
X+12735500Y-2900500D01*
X+12951400Y-2646500D02*
X+12951098Y-2639178D01*
X+12948643Y-2624533D01*
X+12943511Y-2609888D01*
X+12935136Y-2595243D01*
X+12922322Y-2580739D01*
X+12907677Y-2569935D01*
X+12893032Y-2563007D01*
X+12878387Y-2559031D01*
X+12863742Y-2557609D01*
X+12862500Y-2557600D01*
X+12773600Y-2646500D02*
X+12773902Y-2639178D01*
X+12776357Y-2624533D01*
X+12781489Y-2609888D01*
X+12789864Y-2595243D01*
X+12802678Y-2580739D01*
X+12817323Y-2569935D01*
X+12831968Y-2563007D01*
X+12846613Y-2559031D01*
X+12861258Y-2557609D01*
X+12862500Y-2557600D01*
X+12773600Y-2646500D02*
X+12773902Y-2653822D01*
X+12776357Y-2668467D01*
X+12781489Y-2683112D01*
X+12789864Y-2697757D01*
X+12802678Y-2712261D01*
X+12817323Y-2723065D01*
X+12831968Y-2729993D01*
X+12846613Y-2733969D01*
X+12861258Y-2735391D01*
X+12862500Y-2735400D01*
X+12951400Y-2646500D02*
X+12951098Y-2653822D01*
X+12948643Y-2668467D01*
X+12943511Y-2683112D01*
X+12935136Y-2697757D01*
X+12922322Y-2712261D01*
X+12907677Y-2723065D01*
X+12893032Y-2729993D01*
X+12878387Y-2733969D01*
X+12863742Y-2735391D01*
X+12862500Y-2735400D01*
X+12799000Y-2710000D02*
X+12926000Y-2583000D01*
X+12989500Y-2478860D02*
X+12989500Y-2387420D01*
X+13068875Y-2387420D01*
X+13084750Y-2402660D01*
X+13084750Y-2417900D01*
X+13068875Y-2433140D01*
X+12989500Y-2433140D01*
X+13068875Y-2433140D02*
X+13084750Y-2448380D01*
X+13084750Y-2478860D01*
X+13116500Y-2387420D02*
X+13116500Y-2433140D01*
X+13164125Y-2478860D01*
X+13211750Y-2433140D01*
X+13211750Y-2387420D01*
X+13275250Y-2417900D02*
X+13307000Y-2387420D01*
X+13307000Y-2478860D01*
X+8305000Y-5827000D02*
X+10337000Y-5827000D01*
X+10337000Y-5573000D01*
X+8305000Y-5573000D01*
X+8305000Y-5827000D01*
X+8193000Y-5469080D02*
X+8193000Y-5377640D01*
X+8240625Y-5423360D01*
X+8288250Y-5377640D01*
X+8288250Y-5469080D01*
X+8415250Y-5469080D02*
X+8320000Y-5469080D01*
X+8320000Y-5377640D01*
X+8415250Y-5377640D01*
X+8320000Y-5423360D02*
X+8383500Y-5423360D01*
X+8510500Y-5438600D02*
X+8542250Y-5438600D01*
X+8542250Y-5469080D01*
X+8478750Y-5469080D01*
X+8447000Y-5438600D01*
X+8447000Y-5408120D01*
X+8478750Y-5377640D01*
X+8526375Y-5377640D01*
X+8542250Y-5392880D01*
X+8574000Y-5469080D02*
X+8574000Y-5408120D01*
X+8605750Y-5377640D01*
X+8637500Y-5377640D01*
X+8669250Y-5408120D01*
X+8669250Y-5469080D01*
X+8574000Y-5438600D02*
X+8669250Y-5438600D01*
X+8716875Y-5423360D02*
X+8796250Y-5423360D01*
X+8828000Y-5453840D02*
X+8843875Y-5469080D01*
X+8907375Y-5469080D01*
X+8923250Y-5453840D01*
X+8923250Y-5438600D01*
X+8907375Y-5423360D01*
X+8843875Y-5423360D01*
X+8828000Y-5408120D01*
X+8828000Y-5392880D01*
X+8843875Y-5377640D01*
X+8907375Y-5377640D01*
X+8923250Y-5392880D01*
X+8955000Y-5469080D02*
X+8955000Y-5377640D01*
X+9034375Y-5377640D01*
X+9050250Y-5392880D01*
X+9050250Y-5408120D01*
X+9034375Y-5423360D01*
X+8955000Y-5423360D01*
X+9034375Y-5423360D02*
X+9050250Y-5438600D01*
X+9050250Y-5469080D01*
X+9177250Y-5453840D02*
X+9161375Y-5469080D01*
X+9113750Y-5469080D01*
X+9082000Y-5438600D01*
X+9082000Y-5408120D01*
X+9113750Y-5377640D01*
X+9161375Y-5377640D01*
X+9177250Y-5392880D01*
X+10643000Y-5827000D02*
X+12675000Y-5827000D01*
X+12675000Y-5573000D01*
X+10643000Y-5573000D01*
X+10643000Y-5827000D01*
X+10887000Y-5352360D02*
X+10887000Y-5260920D01*
X+10934625Y-5306640D01*
X+10982250Y-5260920D01*
X+10982250Y-5352360D01*
X+11109250Y-5352360D02*
X+11014000Y-5352360D01*
X+11014000Y-5260920D01*
X+11109250Y-5260920D01*
X+11014000Y-5306640D02*
X+11077500Y-5306640D01*
X+11204500Y-5321880D02*
X+11236250Y-5321880D01*
X+11236250Y-5352360D01*
X+11172750Y-5352360D01*
X+11141000Y-5321880D01*
X+11141000Y-5291400D01*
X+11172750Y-5260920D01*
X+11220375Y-5260920D01*
X+11236250Y-5276160D01*
X+11268000Y-5352360D02*
X+11268000Y-5291400D01*
X+11299750Y-5260920D01*
X+11331500Y-5260920D01*
X+11363250Y-5291400D01*
X+11363250Y-5352360D01*
X+11268000Y-5321880D02*
X+11363250Y-5321880D01*
X+11410875Y-5306640D02*
X+11490250Y-5306640D01*
X+11537875Y-5260920D02*
X+11601375Y-5260920D01*
X+11569625Y-5260920D02*
X+11569625Y-5352360D01*
X+11537875Y-5352360D02*
X+11601375Y-5352360D01*
X+11649000Y-5352360D02*
X+11649000Y-5260920D01*
X+11744250Y-5352360D01*
X+11744250Y-5260920D01*
X+11776000Y-5260920D02*
X+11871250Y-5260920D01*
X+11823625Y-5260920D02*
X+11823625Y-5352360D01*
X+11918875Y-5306640D02*
X+11998250Y-5306640D01*
X+12030000Y-5352360D02*
X+12030000Y-5291400D01*
X+12061750Y-5260920D01*
X+12093500Y-5260920D01*
X+12125250Y-5291400D01*
X+12125250Y-5352360D01*
X+12030000Y-5321880D02*
X+12125250Y-5321880D01*
X+12157000Y-5352360D02*
X+12157000Y-5260920D01*
X+12252250Y-5352360D01*
X+12252250Y-5260920D01*
X+12347500Y-5321880D02*
X+12379250Y-5321880D01*
X+12379250Y-5352360D01*
X+12315750Y-5352360D01*
X+12284000Y-5321880D01*
X+12284000Y-5291400D01*
X+12315750Y-5260920D01*
X+12363375Y-5260920D01*
X+12379250Y-5276160D01*
X+10105000Y-977000D02*
X+12137000Y-977000D01*
X+12137000Y-723000D01*
X+10105000Y-723000D01*
X+10105000Y-977000D01*
X+10253000Y-1179080D02*
X+10253000Y-1087640D01*
X+10300625Y-1133360D01*
X+10348250Y-1087640D01*
X+10348250Y-1179080D01*
X+10475250Y-1179080D02*
X+10380000Y-1179080D01*
X+10380000Y-1087640D01*
X+10475250Y-1087640D01*
X+10380000Y-1133360D02*
X+10443500Y-1133360D01*
X+10570500Y-1148600D02*
X+10602250Y-1148600D01*
X+10602250Y-1179080D01*
X+10538750Y-1179080D01*
X+10507000Y-1148600D01*
X+10507000Y-1118120D01*
X+10538750Y-1087640D01*
X+10586375Y-1087640D01*
X+10602250Y-1102880D01*
X+10634000Y-1179080D02*
X+10634000Y-1118120D01*
X+10665750Y-1087640D01*
X+10697500Y-1087640D01*
X+10729250Y-1118120D01*
X+10729250Y-1179080D01*
X+10634000Y-1148600D02*
X+10729250Y-1148600D01*
X+10776875Y-1133360D02*
X+10856250Y-1133360D01*
X+10888000Y-1087640D02*
X+10888000Y-1179080D01*
X+10983250Y-1179080D01*
X+11110250Y-1163840D02*
X+11094375Y-1179080D01*
X+11046750Y-1179080D01*
X+11015000Y-1148600D01*
X+11015000Y-1118120D01*
X+11046750Y-1087640D01*
X+11094375Y-1087640D01*
X+11110250Y-1102880D01*
X+11142000Y-1179080D02*
X+11142000Y-1087640D01*
X+11205500Y-1087640D01*
X+11237250Y-1118120D01*
X+11237250Y-1148600D01*
X+11205500Y-1179080D01*
X+11142000Y-1179080D01*
X+7475000Y-977000D02*
X+9507000Y-977000D01*
X+9507000Y-723000D01*
X+7475000Y-723000D01*
X+7475000Y-977000D01*
X+7288500Y-609080D02*
X+7288500Y-517640D01*
X+7336125Y-563360D01*
X+7383750Y-517640D01*
X+7383750Y-609080D01*
X+7510750Y-609080D02*
X+7415500Y-609080D01*
X+7415500Y-517640D01*
X+7510750Y-517640D01*
X+7415500Y-563360D02*
X+7479000Y-563360D01*
X+7606000Y-578600D02*
X+7637750Y-578600D01*
X+7637750Y-609080D01*
X+7574250Y-609080D01*
X+7542500Y-578600D01*
X+7542500Y-548120D01*
X+7574250Y-517640D01*
X+7621875Y-517640D01*
X+7637750Y-532880D01*
X+7669500Y-609080D02*
X+7669500Y-548120D01*
X+7701250Y-517640D01*
X+7733000Y-517640D01*
X+7764750Y-548120D01*
X+7764750Y-609080D01*
X+7669500Y-578600D02*
X+7764750Y-578600D01*
X+7812375Y-563360D02*
X+7891750Y-563360D01*
X+7939375Y-517640D02*
X+8002875Y-517640D01*
X+7971125Y-517640D02*
X+7971125Y-609080D01*
X+7939375Y-609080D02*
X+8002875Y-609080D01*
X+8050500Y-609080D02*
X+8050500Y-517640D01*
X+8145750Y-609080D01*
X+8145750Y-517640D01*
X+8177500Y-517640D02*
X+8272750Y-517640D01*
X+8225125Y-517640D02*
X+8225125Y-609080D01*
X+8320375Y-563360D02*
X+8399750Y-563360D01*
X+8431500Y-593840D02*
X+8447375Y-609080D01*
X+8510875Y-609080D01*
X+8526750Y-593840D01*
X+8526750Y-578600D01*
X+8510875Y-563360D01*
X+8447375Y-563360D01*
X+8431500Y-548120D01*
X+8431500Y-532880D01*
X+8447375Y-517640D01*
X+8510875Y-517640D01*
X+8526750Y-532880D01*
X+8653750Y-609080D02*
X+8558500Y-609080D01*
X+8558500Y-517640D01*
X+8653750Y-517640D01*
X+8558500Y-563360D02*
X+8622000Y-563360D01*
X+8685500Y-609080D02*
X+8685500Y-517640D01*
X+8780750Y-609080D01*
X+8780750Y-517640D01*
X+8812500Y-593840D02*
X+8828375Y-609080D01*
X+8891875Y-609080D01*
X+8907750Y-593840D01*
X+8907750Y-578600D01*
X+8891875Y-563360D01*
X+8828375Y-563360D01*
X+8812500Y-548120D01*
X+8812500Y-532880D01*
X+8828375Y-517640D01*
X+8891875Y-517640D01*
X+8907750Y-532880D01*
X+8939500Y-548120D02*
X+8971250Y-517640D01*
X+9003000Y-517640D01*
X+9034750Y-548120D01*
X+9034750Y-578600D01*
X+9003000Y-609080D01*
X+8971250Y-609080D01*
X+8939500Y-578600D01*
X+8939500Y-548120D01*
X+9066500Y-609080D02*
X+9066500Y-517640D01*
X+9145875Y-517640D01*
X+9161750Y-532880D01*
X+9161750Y-548120D01*
X+9145875Y-563360D01*
X+9066500Y-563360D01*
X+9145875Y-563360D02*
X+9161750Y-578600D01*
X+9161750Y-609080D01*
X+8473422Y-5699000D02*
X+8473293Y-5695898D01*
X+8472246Y-5689692D01*
X+8470055Y-5683486D01*
X+8466474Y-5677280D01*
X+8460997Y-5671151D01*
X+8454791Y-5666638D01*
X+8448585Y-5663758D01*
X+8442379Y-5662126D01*
X+8436173Y-5661578D01*
X+8436000Y-5661578D01*
X+8398578Y-5699000D02*
X+8398707Y-5695898D01*
X+8399754Y-5689692D01*
X+8401945Y-5683486D01*
X+8405526Y-5677280D01*
X+8411003Y-5671151D01*
X+8417209Y-5666638D01*
X+8423415Y-5663758D01*
X+8429621Y-5662126D01*
X+8435827Y-5661578D01*
X+8436000Y-5661578D01*
X+8398578Y-5699000D02*
X+8398707Y-5702102D01*
X+8399754Y-5708308D01*
X+8401945Y-5714514D01*
X+8405526Y-5720720D01*
X+8411003Y-5726849D01*
X+8417209Y-5731362D01*
X+8423415Y-5734242D01*
X+8429621Y-5735874D01*
X+8435827Y-5736422D01*
X+8436000Y-5736422D01*
X+8473422Y-5699000D02*
X+8473293Y-5702102D01*
X+8472246Y-5708308D01*
X+8470055Y-5714514D01*
X+8466474Y-5720720D01*
X+8460997Y-5726849D01*
X+8454791Y-5731362D01*
X+8448585Y-5734242D01*
X+8442379Y-5735874D01*
X+8436173Y-5736422D01*
X+8436000Y-5736422D01*
X+10822094Y-5699000D02*
X+10821912Y-5694607D01*
X+10820432Y-5685820D01*
X+10817337Y-5677033D01*
X+10812280Y-5668246D01*
X+10804545Y-5659560D01*
X+10795758Y-5653142D01*
X+10786971Y-5649040D01*
X+10778184Y-5646706D01*
X+10769397Y-5645907D01*
X+10769000Y-5645906D01*
X+10715906Y-5699000D02*
X+10716088Y-5694607D01*
X+10717568Y-5685820D01*
X+10720663Y-5677033D01*
X+10725720Y-5668246D01*
X+10733455Y-5659560D01*
X+10742242Y-5653142D01*
X+10751029Y-5649040D01*
X+10759816Y-5646706D01*
X+10768603Y-5645907D01*
X+10769000Y-5645906D01*
X+10715906Y-5699000D02*
X+10716088Y-5703393D01*
X+10717568Y-5712180D01*
X+10720663Y-5720967D01*
X+10725720Y-5729754D01*
X+10733455Y-5738440D01*
X+10742242Y-5744858D01*
X+10751029Y-5748960D01*
X+10759816Y-5751294D01*
X+10768603Y-5752093D01*
X+10769000Y-5752094D01*
X+10822094Y-5699000D02*
X+10821912Y-5703393D01*
X+10820432Y-5712180D01*
X+10817337Y-5720967D01*
X+10812280Y-5729754D01*
X+10804545Y-5738440D01*
X+10795758Y-5744858D01*
X+10786971Y-5748960D01*
X+10778184Y-5751294D01*
X+10769397Y-5752093D01*
X+10769000Y-5752094D01*
X+7638153Y-852000D02*
X+7638032Y-849085D01*
X+7637048Y-843254D01*
X+7634988Y-837423D01*
X+7631622Y-831592D01*
X+7626475Y-825834D01*
X+7620644Y-821596D01*
X+7614813Y-818891D01*
X+7608982Y-817360D01*
X+7603151Y-816847D01*
X+7603000Y-816847D01*
X+7567847Y-852000D02*
X+7567968Y-849085D01*
X+7568952Y-843254D01*
X+7571012Y-837423D01*
X+7574378Y-831592D01*
X+7579525Y-825834D01*
X+7585356Y-821596D01*
X+7591187Y-818891D01*
X+7597018Y-817360D01*
X+7602849Y-816847D01*
X+7603000Y-816847D01*
X+7567847Y-852000D02*
X+7567968Y-854915D01*
X+7568952Y-860746D01*
X+7571012Y-866577D01*
X+7574378Y-872408D01*
X+7579525Y-878166D01*
X+7585356Y-882404D01*
X+7591187Y-885109D01*
X+7597018Y-886640D01*
X+7602849Y-887153D01*
X+7603000Y-887153D01*
X+7638153Y-852000D02*
X+7638032Y-854915D01*
X+7637048Y-860746D01*
X+7634988Y-866577D01*
X+7631622Y-872408D01*
X+7626475Y-878166D01*
X+7620644Y-882404D01*
X+7614813Y-885109D01*
X+7608982Y-886640D01*
X+7603151Y-887153D01*
X+7603000Y-887153D01*
X+10273390Y-852000D02*
X+10273272Y-849148D01*
X+10272308Y-843443D01*
X+10270293Y-837738D01*
X+10267000Y-832033D01*
X+10261963Y-826400D01*
X+10256258Y-822254D01*
X+10250553Y-819609D01*
X+10244848Y-818111D01*
X+10239143Y-817610D01*
X+10239000Y-817610D01*
X+10204610Y-852000D02*
X+10204728Y-849148D01*
X+10205692Y-843443D01*
X+10207707Y-837738D01*
X+10211000Y-832033D01*
X+10216037Y-826400D01*
X+10221742Y-822254D01*
X+10227447Y-819609D01*
X+10233152Y-818111D01*
X+10238857Y-817610D01*
X+10239000Y-817610D01*
X+10204610Y-852000D02*
X+10204728Y-854852D01*
X+10205692Y-860557D01*
X+10207707Y-866262D01*
X+10211000Y-871967D01*
X+10216037Y-877600D01*
X+10221742Y-881746D01*
X+10227447Y-884391D01*
X+10233152Y-885889D01*
X+10238857Y-886390D01*
X+10239000Y-886390D01*
X+10273390Y-852000D02*
X+10273272Y-854852D01*
X+10272308Y-860557D01*
X+10270293Y-866262D01*
X+10267000Y-871967D01*
X+10261963Y-877600D01*
X+10256258Y-881746D01*
X+10250553Y-884391D01*
X+10244848Y-885889D01*
X+10239143Y-886390D01*
X+10239000Y-886390D01*
X+13000Y-3375000D02*
X+267000Y-3375000D01*
X+267000Y-2613000D01*
X+13000Y-2613000D01*
X+13000Y-3375000D01*
X+313840Y-4051500D02*
X+329080Y-4035625D01*
X+329080Y-3972125D01*
X+313840Y-3956250D01*
X+298600Y-3956250D01*
X+283360Y-3972125D01*
X+283360Y-4035625D01*
X+268120Y-4051500D01*
X+252880Y-4051500D01*
X+237640Y-4035625D01*
X+237640Y-3972125D01*
X+252880Y-3956250D01*
X+283360Y-3908625D02*
X+283360Y-3829250D01*
X+329080Y-3797500D02*
X+237640Y-3797500D01*
X+237640Y-3702250D02*
X+329080Y-3702250D01*
X+283360Y-3797500D02*
X+283360Y-3702250D01*
X+237640Y-3670500D02*
X+313840Y-3670500D01*
X+329080Y-3654625D01*
X+329080Y-3591125D01*
X+313840Y-3575250D01*
X+237640Y-3575250D01*
X+329080Y-3543500D02*
X+237640Y-3543500D01*
X+283360Y-3495875D01*
X+237640Y-3448250D01*
X+329080Y-3448250D01*
X+1251000Y-717000D02*
X+2267000Y-717000D01*
X+2267000Y-463000D01*
X+1251000Y-463000D01*
X+1251000Y-717000D01*
X+1781500Y-873840D02*
X+1797375Y-889080D01*
X+1860875Y-889080D01*
X+1876750Y-873840D01*
X+1876750Y-858600D01*
X+1860875Y-843360D01*
X+1797375Y-843360D01*
X+1781500Y-828120D01*
X+1781500Y-812880D01*
X+1797375Y-797640D01*
X+1860875Y-797640D01*
X+1876750Y-812880D01*
X+1924375Y-843360D02*
X+2003750Y-843360D01*
X+2130750Y-873840D02*
X+2114875Y-889080D01*
X+2067250Y-889080D01*
X+2035500Y-858600D01*
X+2035500Y-828120D01*
X+2067250Y-797640D01*
X+2114875Y-797640D01*
X+2130750Y-812880D01*
X+2162500Y-889080D02*
X+2162500Y-797640D01*
X+2257750Y-797640D02*
X+2257750Y-889080D01*
X+2162500Y-843360D02*
X+2257750Y-843360D01*
X+2384750Y-858600D02*
X+2289500Y-858600D01*
X+2353000Y-797640D01*
X+2353000Y-889080D01*
X+1253000Y-3187000D02*
X+2269000Y-3187000D01*
X+2269000Y-2933000D01*
X+1253000Y-2933000D01*
X+1253000Y-3187000D01*
X+1553500Y-3357120D02*
X+1569375Y-3372360D01*
X+1632875Y-3372360D01*
X+1648750Y-3357120D01*
X+1648750Y-3341880D01*
X+1632875Y-3326640D01*
X+1569375Y-3326640D01*
X+1553500Y-3311400D01*
X+1553500Y-3296160D01*
X+1569375Y-3280920D01*
X+1632875Y-3280920D01*
X+1648750Y-3296160D01*
X+1696375Y-3326640D02*
X+1775750Y-3326640D01*
X+1902750Y-3357120D02*
X+1886875Y-3372360D01*
X+1839250Y-3372360D01*
X+1807500Y-3341880D01*
X+1807500Y-3311400D01*
X+1839250Y-3280920D01*
X+1886875Y-3280920D01*
X+1902750Y-3296160D01*
X+1934500Y-3311400D02*
X+1966250Y-3280920D01*
X+1998000Y-3280920D01*
X+2029750Y-3311400D01*
X+2029750Y-3341880D01*
X+1998000Y-3372360D01*
X+1966250Y-3372360D01*
X+1934500Y-3341880D01*
X+1934500Y-3311400D01*
X+2077375Y-3296160D02*
X+2093250Y-3280920D01*
X+2140875Y-3280920D01*
X+2156750Y-3296160D01*
X+2156750Y-3311400D01*
X+2140875Y-3326640D01*
X+2093250Y-3326640D01*
X+2077375Y-3341880D01*
X+2077375Y-3372360D01*
X+2156750Y-3372360D01*
X+196433Y-3000000D02*
X+196274Y-2996155D01*
X+194977Y-2988464D01*
X+192265Y-2980773D01*
X+187834Y-2973082D01*
X+181057Y-2965482D01*
X+173366Y-2959875D01*
X+165675Y-2956293D01*
X+157984Y-2954259D01*
X+150293Y-2953568D01*
X+150000Y-2953567D01*
X+103567Y-3000000D02*
X+103726Y-2996155D01*
X+105023Y-2988464D01*
X+107735Y-2980773D01*
X+112166Y-2973082D01*
X+118943Y-2965482D01*
X+126634Y-2959875D01*
X+134325Y-2956293D01*
X+142016Y-2954259D01*
X+149707Y-2953568D01*
X+150000Y-2953567D01*
X+103567Y-3000000D02*
X+103726Y-3003845D01*
X+105023Y-3011536D01*
X+107735Y-3019227D01*
X+112166Y-3026918D01*
X+118943Y-3034518D01*
X+126634Y-3040125D01*
X+134325Y-3043707D01*
X+142016Y-3045741D01*
X+149707Y-3046432D01*
X+150000Y-3046433D01*
X+196433Y-3000000D02*
X+196274Y-3003845D01*
X+194977Y-3011536D01*
X+192265Y-3019227D01*
X+187834Y-3026918D01*
X+181057Y-3034518D01*
X+173366Y-3040125D01*
X+165675Y-3043707D01*
X+157984Y-3045741D01*
X+150293Y-3046432D01*
X+150000Y-3046433D01*
D14*
X+0Y-6010000D02*
X+15116000Y-6010000D01*
X+15116000Y-10000D01*
X+0Y-10000D01*
X+0Y-6010000D01*
M02*
