G04 PROTEUS GERBER X2 FILE*
%TF.GenerationSoftware,Labcenter,Proteus,8.12-SP0-Build30713*%
%TF.CreationDate,2025-01-15T12:30:57+00:00*%
%TF.FileFunction,Plated,1,2,PTH*%
%TF.FilePolarity,Positive*%
%TF.Part,Single*%
%TF.SameCoordinates,{9626ba97-e6ad-4adc-9df8-61d07434fadc}*%
%FSLAX45Y45*%
%MOMM*%
G01*
%TA.AperFunction,ComponentDrill*%
%ADD27C,1.016000*%
%TA.AperFunction,ComponentDrill*%
%ADD28C,0.762000*%
%TD.AperFunction*%
D27*
X+9620000Y-4540000D03*
X+9874000Y-4540000D03*
X+10128000Y-4540000D03*
X+10382000Y-4540000D03*
X+10636000Y-4540000D03*
X+10890000Y-4540000D03*
X+11144000Y-4540000D03*
X+11398000Y-4540000D03*
X+11652000Y-4540000D03*
X+11906000Y-4540000D03*
X+12160000Y-4540000D03*
X+12414000Y-4540000D03*
X+12668000Y-4540000D03*
X+12922000Y-4540000D03*
X+13176000Y-4540000D03*
X+13430000Y-4540000D03*
X+13684000Y-4540000D03*
X+13938000Y-4540000D03*
D28*
X+10930000Y-2910000D03*
X+9914000Y-2910000D03*
X+12926000Y-2710000D03*
X+13434000Y-2710000D03*
X+13180000Y-2710000D03*
D27*
X+10210000Y-5700000D03*
X+9956000Y-5700000D03*
X+9702000Y-5700000D03*
X+9448000Y-5700000D03*
X+9194000Y-5700000D03*
X+8940000Y-5700000D03*
X+8686000Y-5700000D03*
X+8432000Y-5700000D03*
X+10770000Y-5700000D03*
X+11024000Y-5700000D03*
X+11278000Y-5700000D03*
X+11532000Y-5700000D03*
X+11786000Y-5700000D03*
X+12040000Y-5700000D03*
X+12294000Y-5700000D03*
X+12548000Y-5700000D03*
X+12010000Y-850000D03*
X+11756000Y-850000D03*
X+11502000Y-850000D03*
X+11248000Y-850000D03*
X+10994000Y-850000D03*
X+10740000Y-850000D03*
X+10486000Y-850000D03*
X+10232000Y-850000D03*
X+9380000Y-850000D03*
X+9126000Y-850000D03*
X+8872000Y-850000D03*
X+8618000Y-850000D03*
X+8364000Y-850000D03*
X+8110000Y-850000D03*
X+7856000Y-850000D03*
X+7602000Y-850000D03*
X+140000Y-2740000D03*
X+140000Y-2994000D03*
X+140000Y-3248000D03*
X+2140000Y-590000D03*
X+1886000Y-590000D03*
X+1632000Y-590000D03*
X+1378000Y-590000D03*
X+1380000Y-3060000D03*
X+1634000Y-3060000D03*
X+1888000Y-3060000D03*
X+2142000Y-3060000D03*
M02*
