G04 PROTEUS GERBER X2 FILE*
%TF.GenerationSoftware,Labcenter,Proteus,8.12-SP0-Build30713*%
%TF.CreationDate,2025-01-15T12:30:57+00:00*%
%TF.FileFunction,Soldermask,Top*%
%TF.FilePolarity,Negative*%
%TF.Part,Single*%
%TF.SameCoordinates,{9626ba97-e6ad-4adc-9df8-61d07434fadc}*%
%FSLAX45Y45*%
%MOMM*%
G01*
%AMPPAD006*
4,1,36,
-1.016000,1.143000,
1.016000,1.143000,
1.041970,1.140470,
1.065980,1.133200,
1.087580,1.121650,
1.106290,1.106290,
1.121650,1.087570,
1.133200,1.065980,
1.140470,1.041970,
1.143000,1.016000,
1.143000,-1.016000,
1.140470,-1.041970,
1.133200,-1.065980,
1.121650,-1.087570,
1.106290,-1.106290,
1.087580,-1.121650,
1.065980,-1.133200,
1.041970,-1.140470,
1.016000,-1.143000,
-1.016000,-1.143000,
-1.041970,-1.140470,
-1.065980,-1.133200,
-1.087580,-1.121650,
-1.106290,-1.106290,
-1.121650,-1.087570,
-1.133200,-1.065980,
-1.140470,-1.041970,
-1.143000,-1.016000,
-1.143000,1.016000,
-1.140470,1.041970,
-1.133200,1.065980,
-1.121650,1.087570,
-1.106290,1.106290,
-1.087580,1.121650,
-1.065980,1.133200,
-1.041970,1.140470,
-1.016000,1.143000,
0*%
%TA.AperFunction,Material*%
%ADD16PPAD006*%
%TA.AperFunction,Material*%
%ADD17C,2.032000*%
%TA.AperFunction,Material*%
%ADD18C,2.286000*%
%AMPPAD009*
4,1,36,
1.143000,1.016000,
1.143000,-1.016000,
1.140470,-1.041970,
1.133200,-1.065980,
1.121650,-1.087580,
1.106290,-1.106290,
1.087570,-1.121650,
1.065980,-1.133200,
1.041970,-1.140470,
1.016000,-1.143000,
-1.016000,-1.143000,
-1.041970,-1.140470,
-1.065980,-1.133200,
-1.087570,-1.121650,
-1.106290,-1.106290,
-1.121650,-1.087580,
-1.133200,-1.065980,
-1.140470,-1.041970,
-1.143000,-1.016000,
-1.143000,1.016000,
-1.140470,1.041970,
-1.133200,1.065980,
-1.121650,1.087580,
-1.106290,1.106290,
-1.087570,1.121650,
-1.065980,1.133200,
-1.041970,1.140470,
-1.016000,1.143000,
1.016000,1.143000,
1.041970,1.140470,
1.065980,1.133200,
1.087570,1.121650,
1.106290,1.106290,
1.121650,1.087580,
1.133200,1.065980,
1.140470,1.041970,
1.143000,1.016000,
0*%
%ADD19PPAD009*%
%TA.AperFunction,Profile*%
%ADD14C,0.203200*%
%TD.AperFunction*%
D16*
X+9620000Y-4540000D03*
X+9874000Y-4540000D03*
X+10128000Y-4540000D03*
X+10382000Y-4540000D03*
X+10636000Y-4540000D03*
X+10890000Y-4540000D03*
X+11144000Y-4540000D03*
X+11398000Y-4540000D03*
X+11652000Y-4540000D03*
X+11906000Y-4540000D03*
X+12160000Y-4540000D03*
X+12414000Y-4540000D03*
X+12668000Y-4540000D03*
X+12922000Y-4540000D03*
X+13176000Y-4540000D03*
X+13430000Y-4540000D03*
X+13684000Y-4540000D03*
X+13938000Y-4540000D03*
D17*
X+10930000Y-2910000D03*
X+9914000Y-2910000D03*
D18*
X+12926000Y-2710000D03*
X+13434000Y-2710000D03*
X+13180000Y-2710000D03*
D16*
X+10210000Y-5700000D03*
X+9956000Y-5700000D03*
X+9702000Y-5700000D03*
X+9448000Y-5700000D03*
X+9194000Y-5700000D03*
X+8940000Y-5700000D03*
X+8686000Y-5700000D03*
X+8432000Y-5700000D03*
X+10770000Y-5700000D03*
X+11024000Y-5700000D03*
X+11278000Y-5700000D03*
X+11532000Y-5700000D03*
X+11786000Y-5700000D03*
X+12040000Y-5700000D03*
X+12294000Y-5700000D03*
X+12548000Y-5700000D03*
X+12010000Y-850000D03*
X+11756000Y-850000D03*
X+11502000Y-850000D03*
X+11248000Y-850000D03*
X+10994000Y-850000D03*
X+10740000Y-850000D03*
X+10486000Y-850000D03*
X+10232000Y-850000D03*
X+9380000Y-850000D03*
X+9126000Y-850000D03*
X+8872000Y-850000D03*
X+8618000Y-850000D03*
X+8364000Y-850000D03*
X+8110000Y-850000D03*
X+7856000Y-850000D03*
X+7602000Y-850000D03*
D19*
X+140000Y-2740000D03*
X+140000Y-2994000D03*
X+140000Y-3248000D03*
D16*
X+2140000Y-590000D03*
X+1886000Y-590000D03*
X+1632000Y-590000D03*
X+1378000Y-590000D03*
X+1380000Y-3060000D03*
X+1634000Y-3060000D03*
X+1888000Y-3060000D03*
X+2142000Y-3060000D03*
D14*
X+0Y-6010000D02*
X+15116000Y-6010000D01*
X+15116000Y-10000D01*
X+0Y-10000D01*
X+0Y-6010000D01*
M02*
