G04 PROTEUS GERBER X2 FILE*
%TF.GenerationSoftware,Labcenter,Proteus,8.12-SP0-Build30713*%
%TF.CreationDate,2025-01-15T12:30:57+00:00*%
%TF.FileFunction,AssemblyDrawing,Top*%
%TF.FilePolarity,Positive*%
%TF.Part,Single*%
%TF.SameCoordinates,{9626ba97-e6ad-4adc-9df8-61d07434fadc}*%
%FSLAX45Y45*%
%MOMM*%
G01*
%TA.AperFunction,Material*%
%ADD15C,0.203200*%
%ADD70C,0.812800*%
%ADD71C,0.177800*%
%ADD20C,0.711200*%
%ADD21C,0.110230*%
%ADD22C,0.215900*%
%ADD23C,0.154510*%
%ADD24C,0.123610*%
%ADD25C,0.116840*%
%ADD26C,0.167640*%
%TA.AperFunction,Profile*%
%ADD14C,0.203200*%
%TD.AperFunction*%
D15*
X+9482840Y-4677160D02*
X+14075160Y-4677160D01*
X+14075160Y-4402840D01*
X+9482840Y-4402840D01*
X+9482840Y-4677160D01*
D70*
X+9620000Y-4540000D02*
X+9620000Y-4540000D01*
D71*
X+11627870Y-4486660D02*
X+11627870Y-4593340D01*
X+11747885Y-4593340D01*
X+11907905Y-4575560D02*
X+11887902Y-4593340D01*
X+11827895Y-4593340D01*
X+11787890Y-4557780D01*
X+11787890Y-4522220D01*
X+11827895Y-4486660D01*
X+11887902Y-4486660D01*
X+11907905Y-4504440D01*
X+11947910Y-4593340D02*
X+11947910Y-4486660D01*
X+12027920Y-4486660D01*
X+12067925Y-4522220D01*
X+12067925Y-4557780D01*
X+12027920Y-4593340D01*
X+11947910Y-4593340D01*
D15*
X+9825100Y-2998900D02*
X+11018900Y-2998900D01*
X+11018900Y-2821100D01*
X+9825100Y-2821100D01*
X+9825100Y-2998900D01*
D20*
X+10930000Y-2910000D02*
X+10930000Y-2910000D01*
D21*
X+10260558Y-2943071D02*
X+10260558Y-2876930D01*
X+10322565Y-2876930D01*
X+10334967Y-2887953D01*
X+10334967Y-2898977D01*
X+10322565Y-2910000D01*
X+10260558Y-2910000D01*
X+10322565Y-2910000D02*
X+10334967Y-2921024D01*
X+10334967Y-2943071D01*
X+10384573Y-2898977D02*
X+10409376Y-2876930D01*
X+10409376Y-2943071D01*
D15*
X+12725340Y-2910660D02*
X+13634660Y-2910660D01*
X+13634660Y-2509340D01*
X+12725340Y-2509340D01*
X+12725340Y-2910660D01*
D70*
X+12926000Y-2710000D02*
X+12926000Y-2710000D01*
D22*
X+13009185Y-2774770D02*
X+13009185Y-2645230D01*
X+13130628Y-2645230D01*
X+13154917Y-2666820D01*
X+13154917Y-2688410D01*
X+13130628Y-2710000D01*
X+13009185Y-2710000D01*
X+13130628Y-2710000D02*
X+13154917Y-2731590D01*
X+13154917Y-2774770D01*
X+13203495Y-2645230D02*
X+13203495Y-2710000D01*
X+13276361Y-2774770D01*
X+13349227Y-2710000D01*
X+13349227Y-2645230D01*
X+13446382Y-2688410D02*
X+13494960Y-2645230D01*
X+13494960Y-2774770D01*
D15*
X+8294840Y-5837160D02*
X+10347160Y-5837160D01*
X+10347160Y-5562840D01*
X+8294840Y-5562840D01*
X+8294840Y-5837160D01*
D70*
X+10210000Y-5700000D02*
X+10210000Y-5700000D01*
D71*
X+8592020Y-5753340D02*
X+8592020Y-5646660D01*
X+8652027Y-5700000D01*
X+8712035Y-5646660D01*
X+8712035Y-5753340D01*
X+8872055Y-5753340D02*
X+8752040Y-5753340D01*
X+8752040Y-5646660D01*
X+8872055Y-5646660D01*
X+8752040Y-5700000D02*
X+8832050Y-5700000D01*
X+8992070Y-5717780D02*
X+9032075Y-5717780D01*
X+9032075Y-5753340D01*
X+8952065Y-5753340D01*
X+8912060Y-5717780D01*
X+8912060Y-5682220D01*
X+8952065Y-5646660D01*
X+9012072Y-5646660D01*
X+9032075Y-5664440D01*
X+9072080Y-5753340D02*
X+9072080Y-5682220D01*
X+9112085Y-5646660D01*
X+9152090Y-5646660D01*
X+9192095Y-5682220D01*
X+9192095Y-5753340D01*
X+9072080Y-5717780D02*
X+9192095Y-5717780D01*
X+9252102Y-5700000D02*
X+9352115Y-5700000D01*
X+9392120Y-5735560D02*
X+9412122Y-5753340D01*
X+9492132Y-5753340D01*
X+9512135Y-5735560D01*
X+9512135Y-5717780D01*
X+9492132Y-5700000D01*
X+9412122Y-5700000D01*
X+9392120Y-5682220D01*
X+9392120Y-5664440D01*
X+9412122Y-5646660D01*
X+9492132Y-5646660D01*
X+9512135Y-5664440D01*
X+9552140Y-5753340D02*
X+9552140Y-5646660D01*
X+9652152Y-5646660D01*
X+9672155Y-5664440D01*
X+9672155Y-5682220D01*
X+9652152Y-5700000D01*
X+9552140Y-5700000D01*
X+9652152Y-5700000D02*
X+9672155Y-5717780D01*
X+9672155Y-5753340D01*
X+9832175Y-5735560D02*
X+9812172Y-5753340D01*
X+9752165Y-5753340D01*
X+9712160Y-5717780D01*
X+9712160Y-5682220D01*
X+9752165Y-5646660D01*
X+9812172Y-5646660D01*
X+9832175Y-5664440D01*
D15*
X+10632840Y-5837160D02*
X+12685160Y-5837160D01*
X+12685160Y-5562840D01*
X+10632840Y-5562840D01*
X+10632840Y-5837160D01*
D70*
X+10770000Y-5700000D02*
X+10770000Y-5700000D01*
D23*
X+10913516Y-5746355D02*
X+10913516Y-5653646D01*
X+10965665Y-5700000D01*
X+11017814Y-5653646D01*
X+11017814Y-5746355D01*
X+11156878Y-5746355D02*
X+11052580Y-5746355D01*
X+11052580Y-5653646D01*
X+11156878Y-5653646D01*
X+11052580Y-5700000D02*
X+11122112Y-5700000D01*
X+11261176Y-5715452D02*
X+11295942Y-5715452D01*
X+11295942Y-5746355D01*
X+11226410Y-5746355D01*
X+11191644Y-5715452D01*
X+11191644Y-5684549D01*
X+11226410Y-5653646D01*
X+11278559Y-5653646D01*
X+11295942Y-5669097D01*
X+11330708Y-5746355D02*
X+11330708Y-5684549D01*
X+11365474Y-5653646D01*
X+11400240Y-5653646D01*
X+11435006Y-5684549D01*
X+11435006Y-5746355D01*
X+11330708Y-5715452D02*
X+11435006Y-5715452D01*
X+11487155Y-5700000D02*
X+11574070Y-5700000D01*
X+11626219Y-5653646D02*
X+11695751Y-5653646D01*
X+11660985Y-5653646D02*
X+11660985Y-5746355D01*
X+11626219Y-5746355D02*
X+11695751Y-5746355D01*
X+11747900Y-5746355D02*
X+11747900Y-5653646D01*
X+11852198Y-5746355D01*
X+11852198Y-5653646D01*
X+11886964Y-5653646D02*
X+11991262Y-5653646D01*
X+11939113Y-5653646D02*
X+11939113Y-5746355D01*
X+12043411Y-5700000D02*
X+12130326Y-5700000D01*
X+12165092Y-5746355D02*
X+12165092Y-5684549D01*
X+12199858Y-5653646D01*
X+12234624Y-5653646D01*
X+12269390Y-5684549D01*
X+12269390Y-5746355D01*
X+12165092Y-5715452D02*
X+12269390Y-5715452D01*
X+12304156Y-5746355D02*
X+12304156Y-5653646D01*
X+12408454Y-5746355D01*
X+12408454Y-5653646D01*
X+12512752Y-5715452D02*
X+12547518Y-5715452D01*
X+12547518Y-5746355D01*
X+12477986Y-5746355D01*
X+12443220Y-5715452D01*
X+12443220Y-5684549D01*
X+12477986Y-5653646D01*
X+12530135Y-5653646D01*
X+12547518Y-5669097D01*
D15*
X+10094840Y-987160D02*
X+12147160Y-987160D01*
X+12147160Y-712840D01*
X+10094840Y-712840D01*
X+10094840Y-987160D01*
D70*
X+12010000Y-850000D02*
X+12010000Y-850000D01*
D71*
X+10392020Y-903340D02*
X+10392020Y-796660D01*
X+10452027Y-850000D01*
X+10512035Y-796660D01*
X+10512035Y-903340D01*
X+10672055Y-903340D02*
X+10552040Y-903340D01*
X+10552040Y-796660D01*
X+10672055Y-796660D01*
X+10552040Y-850000D02*
X+10632050Y-850000D01*
X+10792070Y-867780D02*
X+10832075Y-867780D01*
X+10832075Y-903340D01*
X+10752065Y-903340D01*
X+10712060Y-867780D01*
X+10712060Y-832220D01*
X+10752065Y-796660D01*
X+10812072Y-796660D01*
X+10832075Y-814440D01*
X+10872080Y-903340D02*
X+10872080Y-832220D01*
X+10912085Y-796660D01*
X+10952090Y-796660D01*
X+10992095Y-832220D01*
X+10992095Y-903340D01*
X+10872080Y-867780D02*
X+10992095Y-867780D01*
X+11052102Y-850000D02*
X+11152115Y-850000D01*
X+11192120Y-796660D02*
X+11192120Y-903340D01*
X+11312135Y-903340D01*
X+11472155Y-885560D02*
X+11452152Y-903340D01*
X+11392145Y-903340D01*
X+11352140Y-867780D01*
X+11352140Y-832220D01*
X+11392145Y-796660D01*
X+11452152Y-796660D01*
X+11472155Y-814440D01*
X+11512160Y-903340D02*
X+11512160Y-796660D01*
X+11592170Y-796660D01*
X+11632175Y-832220D01*
X+11632175Y-867780D01*
X+11592170Y-903340D01*
X+11512160Y-903340D01*
D15*
X+7464840Y-987160D02*
X+9517160Y-987160D01*
X+9517160Y-712840D01*
X+7464840Y-712840D01*
X+7464840Y-987160D01*
D70*
X+9380000Y-850000D02*
X+9380000Y-850000D01*
D24*
X+7567718Y-887084D02*
X+7567718Y-812916D01*
X+7609437Y-850000D01*
X+7651156Y-812916D01*
X+7651156Y-887084D01*
X+7762407Y-887084D02*
X+7678969Y-887084D01*
X+7678969Y-812916D01*
X+7762407Y-812916D01*
X+7678969Y-850000D02*
X+7734594Y-850000D01*
X+7845845Y-862361D02*
X+7873658Y-862361D01*
X+7873658Y-887084D01*
X+7818032Y-887084D01*
X+7790220Y-862361D01*
X+7790220Y-837639D01*
X+7818032Y-812916D01*
X+7859751Y-812916D01*
X+7873658Y-825277D01*
X+7901471Y-887084D02*
X+7901471Y-837639D01*
X+7929283Y-812916D01*
X+7957096Y-812916D01*
X+7984909Y-837639D01*
X+7984909Y-887084D01*
X+7901471Y-862361D02*
X+7984909Y-862361D01*
X+8026628Y-850000D02*
X+8096160Y-850000D01*
X+8137879Y-812916D02*
X+8193504Y-812916D01*
X+8165692Y-812916D02*
X+8165692Y-887084D01*
X+8137879Y-887084D02*
X+8193504Y-887084D01*
X+8235224Y-887084D02*
X+8235224Y-812916D01*
X+8318662Y-887084D01*
X+8318662Y-812916D01*
X+8346475Y-812916D02*
X+8429913Y-812916D01*
X+8388194Y-812916D02*
X+8388194Y-887084D01*
X+8471632Y-850000D02*
X+8541164Y-850000D01*
X+8568977Y-874723D02*
X+8582883Y-887084D01*
X+8638508Y-887084D01*
X+8652415Y-874723D01*
X+8652415Y-862361D01*
X+8638508Y-850000D01*
X+8582883Y-850000D01*
X+8568977Y-837639D01*
X+8568977Y-825277D01*
X+8582883Y-812916D01*
X+8638508Y-812916D01*
X+8652415Y-825277D01*
X+8763666Y-887084D02*
X+8680228Y-887084D01*
X+8680228Y-812916D01*
X+8763666Y-812916D01*
X+8680228Y-850000D02*
X+8735853Y-850000D01*
X+8791479Y-887084D02*
X+8791479Y-812916D01*
X+8874917Y-887084D01*
X+8874917Y-812916D01*
X+8902730Y-874723D02*
X+8916636Y-887084D01*
X+8972261Y-887084D01*
X+8986168Y-874723D01*
X+8986168Y-862361D01*
X+8972261Y-850000D01*
X+8916636Y-850000D01*
X+8902730Y-837639D01*
X+8902730Y-825277D01*
X+8916636Y-812916D01*
X+8972261Y-812916D01*
X+8986168Y-825277D01*
X+9013981Y-837639D02*
X+9041793Y-812916D01*
X+9069606Y-812916D01*
X+9097419Y-837639D01*
X+9097419Y-862361D01*
X+9069606Y-887084D01*
X+9041793Y-887084D01*
X+9013981Y-862361D01*
X+9013981Y-837639D01*
X+9125232Y-887084D02*
X+9125232Y-812916D01*
X+9194763Y-812916D01*
X+9208670Y-825277D01*
X+9208670Y-837639D01*
X+9194763Y-850000D01*
X+9125232Y-850000D01*
X+9194763Y-850000D02*
X+9208670Y-862361D01*
X+9208670Y-887084D01*
D15*
X+2840Y-3385160D02*
X+277160Y-3385160D01*
X+277160Y-2602840D01*
X+2840Y-2602840D01*
X+2840Y-3385160D01*
D70*
X+140000Y-2740000D02*
X+140000Y-2740000D01*
D25*
X+163368Y-3345790D02*
X+175052Y-3332646D01*
X+175052Y-3280068D01*
X+163368Y-3266923D01*
X+151684Y-3266923D01*
X+140000Y-3280068D01*
X+140000Y-3332646D01*
X+128316Y-3345790D01*
X+116632Y-3345790D01*
X+104948Y-3332646D01*
X+104948Y-3280068D01*
X+116632Y-3266923D01*
X+140000Y-3227490D02*
X+140000Y-3161767D01*
X+175052Y-3135478D02*
X+104948Y-3135478D01*
X+104948Y-3056611D02*
X+175052Y-3056611D01*
X+140000Y-3135478D02*
X+140000Y-3056611D01*
X+104948Y-3030322D02*
X+163368Y-3030322D01*
X+175052Y-3017178D01*
X+175052Y-2964600D01*
X+163368Y-2951455D01*
X+104948Y-2951455D01*
X+175052Y-2925166D02*
X+104948Y-2925166D01*
X+140000Y-2885733D01*
X+104948Y-2846299D01*
X+175052Y-2846299D01*
D15*
X+1240840Y-727160D02*
X+2277160Y-727160D01*
X+2277160Y-452840D01*
X+1240840Y-452840D01*
X+1240840Y-727160D01*
D70*
X+2140000Y-590000D02*
X+2140000Y-590000D01*
D26*
X+1292910Y-623528D02*
X+1311769Y-640292D01*
X+1387207Y-640292D01*
X+1406067Y-623528D01*
X+1406067Y-606764D01*
X+1387207Y-590000D01*
X+1311769Y-590000D01*
X+1292910Y-573236D01*
X+1292910Y-556472D01*
X+1311769Y-539708D01*
X+1387207Y-539708D01*
X+1406067Y-556472D01*
X+1462645Y-590000D02*
X+1556943Y-590000D01*
X+1707819Y-623528D02*
X+1688959Y-640292D01*
X+1632381Y-640292D01*
X+1594662Y-606764D01*
X+1594662Y-573236D01*
X+1632381Y-539708D01*
X+1688959Y-539708D01*
X+1707819Y-556472D01*
X+1745538Y-640292D02*
X+1745538Y-539708D01*
X+1858695Y-539708D02*
X+1858695Y-640292D01*
X+1745538Y-590000D02*
X+1858695Y-590000D01*
X+2009571Y-606764D02*
X+1896414Y-606764D01*
X+1971852Y-539708D01*
X+1971852Y-640292D01*
D15*
X+1242840Y-3197160D02*
X+2279160Y-3197160D01*
X+2279160Y-2922840D01*
X+1242840Y-2922840D01*
X+1242840Y-3197160D01*
D70*
X+1380000Y-3060000D02*
X+1380000Y-3060000D01*
D26*
X+1472710Y-3093528D02*
X+1491569Y-3110292D01*
X+1567007Y-3110292D01*
X+1585867Y-3093528D01*
X+1585867Y-3076764D01*
X+1567007Y-3060000D01*
X+1491569Y-3060000D01*
X+1472710Y-3043236D01*
X+1472710Y-3026472D01*
X+1491569Y-3009708D01*
X+1567007Y-3009708D01*
X+1585867Y-3026472D01*
X+1642445Y-3060000D02*
X+1736743Y-3060000D01*
X+1887619Y-3093528D02*
X+1868759Y-3110292D01*
X+1812181Y-3110292D01*
X+1774462Y-3076764D01*
X+1774462Y-3043236D01*
X+1812181Y-3009708D01*
X+1868759Y-3009708D01*
X+1887619Y-3026472D01*
X+1925338Y-3043236D02*
X+1963057Y-3009708D01*
X+2000776Y-3009708D01*
X+2038495Y-3043236D01*
X+2038495Y-3076764D01*
X+2000776Y-3110292D01*
X+1963057Y-3110292D01*
X+1925338Y-3076764D01*
X+1925338Y-3043236D01*
X+2095073Y-3026472D02*
X+2113933Y-3009708D01*
X+2170511Y-3009708D01*
X+2189371Y-3026472D01*
X+2189371Y-3043236D01*
X+2170511Y-3060000D01*
X+2113933Y-3060000D01*
X+2095073Y-3076764D01*
X+2095073Y-3110292D01*
X+2189371Y-3110292D01*
D14*
X+0Y-6010000D02*
X+15116000Y-6010000D01*
X+15116000Y-10000D01*
X+0Y-10000D01*
X+0Y-6010000D01*
M02*
